<svg width="194" height="189" viewBox="0 0 194 189" fill="none" xmlns="http://www.w3.org/2000/svg">
<path d="M103.583 0.0838826C101.206 0.0838826 99.2917 1.99797 99.2917 4.37555V8.66722C99.2917 11.0448 101.206 12.9589 103.583 12.9589H146.517L146.585 40.7877C146.585 44.3296 149.464 47.1985 153.006 47.2084L180.835 47.2817V169.603C180.835 173.28 178.075 176.04 174.398 176.04H75.6892C72.0112 176.04 69.2517 173.28 69.2517 169.603V163.165C69.2517 160.788 67.3376 158.873 64.96 158.873H60.6684C58.2908 158.873 56.3767 160.788 56.3767 163.165V169.603C56.3767 180.191 65.1012 188.915 75.6892 188.915H174.398C184.985 188.915 193.71 180.191 193.71 169.603V38.7655C193.71 37.0582 193.031 35.4212 191.824 34.214L159.578 1.96777C158.371 0.760099 156.733 0.0822163 155.026 0.0817871L103.583 0.0838826ZM56.375 90.2089C56.375 92.5865 58.2891 94.5005 60.6667 94.5005H64.9583C67.3359 94.5005 69.25 92.5865 69.25 90.2089V47.2922C69.25 44.9146 67.3359 43.0005 64.9583 43.0005H60.6667C58.2891 43.0005 56.375 44.9146 56.375 47.2922V90.2089Z" fill="#FF5E5E"/>
<path d="M75.6872 0.0828857C65.0996 0.0828857 56.3747 8.80742 56.3747 19.3954V30.1246C56.3747 32.5021 58.2888 34.4162 60.6663 34.4162H64.958C67.3356 34.4162 69.2497 32.5021 69.2497 30.1246V19.3954C69.2497 15.7179 72.0096 12.9579 75.6872 12.9579H86.4163C88.7939 12.9579 90.708 11.0438 90.708 8.66622V4.37455C90.708 1.99697 88.7939 0.0828857 86.4163 0.0828857H75.6872ZM9.16634 103.083C4.41113 103.083 0.583008 106.911 0.583008 111.666V141.708C0.583008 146.463 4.41113 150.291 9.16634 150.291H116.458C121.213 150.291 125.041 146.463 125.041 141.708V111.666C125.041 106.911 121.213 103.083 116.458 103.083H9.16634ZM30.4738 114.843H38.7554C45.3531 114.843 48.6715 117.426 48.6715 122.261C48.6715 127.384 45.3531 130.09 38.7554 130.09H35.3522V134.181H37.3639C39.0031 134.181 39.8199 134.713 39.8199 136.352C39.8199 137.991 39.0031 138.565 37.3639 138.565H30.4738C28.8346 138.565 28.0178 137.991 28.0178 136.352C28.0178 134.959 28.7945 134.181 30.1469 134.181H30.4739V119.269H30.1889C28.7956 119.269 28.018 118.49 28.018 117.056C28.018 115.458 28.8346 114.843 30.4738 114.843ZM54.2708 114.843H58.0343H59.2246C63.0357 114.843 66.1958 114.929 68.6545 116.402C71.81 118.328 73.6503 121.934 73.6503 126.687C73.6503 131.646 71.5576 135.455 67.9923 137.341C65.9023 138.488 63.3216 138.565 60.2891 138.565H58.0343H54.2708C52.5906 138.565 51.731 138.032 51.731 136.352C51.731 134.917 52.5095 134.181 53.9438 134.181H54.2709V119.269H53.9438C52.5095 119.269 51.731 118.49 51.731 117.056C51.731 115.417 52.5496 114.843 54.2708 114.843ZM79.1239 114.843H95.5194C97.1995 114.843 97.6065 115.251 97.6065 116.687V121.155C97.6065 122.876 97.0338 123.695 95.4355 123.695C93.7963 123.695 93.3065 122.835 93.3065 121.155V119.059H84.0023V124.181H87.4809V123.938C87.4809 122.422 88.1822 121.683 89.5345 121.683C91.0507 121.683 91.5797 122.509 91.5797 124.189V128.322C91.5797 130.002 91.0507 130.828 89.5345 130.828C88.1822 130.828 87.4809 130.125 87.4809 128.691V128.322H84.0023V134.181H85.1087C86.7479 134.181 87.5647 134.713 87.5647 136.352C87.5647 137.991 86.7479 138.565 85.1087 138.565H79.1239C77.4847 138.565 76.6679 137.991 76.6679 136.352C76.6679 134.959 77.4446 134.181 78.797 134.181H79.124V119.269H78.839C77.4457 119.269 76.668 118.491 76.668 117.056C76.668 115.458 77.4847 114.843 79.1239 114.843ZM60.616 119.143C60.2474 119.143 59.844 119.141 59.4342 119.186V134.14C59.844 134.183 60.2139 134.183 60.5825 134.183C65.5821 134.183 67.9169 131.811 67.9169 126.647C67.9169 121.607 65.5336 119.143 60.616 119.143ZM35.3522 119.428V125.581H38.177C41.3324 125.581 42.9381 124.471 42.9381 122.462C42.9381 120.454 41.3324 119.428 38.177 119.428H35.3522Z" fill="white"/>
</svg>
