<svg width="20" height="27" viewBox="0 0 20 27" fill="none" xmlns="http://www.w3.org/2000/svg">
<path d="M19.6731 5.09942L15.2092 0.774887C15.2089 0.774684 15.2087 0.774583 15.2086 0.77438C15.1827 0.749396 15.1556 0.72573 15.1274 0.703279C15.1145 0.692992 15.1009 0.684072 15.0876 0.674444C15.0717 0.66294 15.0562 0.651031 15.0397 0.640338C15.0238 0.63005 15.0073 0.621131 14.991 0.611705C14.976 0.603039 14.9614 0.593967 14.946 0.58596C14.9294 0.577345 14.9123 0.570047 14.8953 0.562294C14.8793 0.554945 14.8635 0.547192 14.847 0.540553C14.8306 0.533965 14.8137 0.528593 14.797 0.522816C14.7794 0.516684 14.762 0.510146 14.744 0.504876C14.7272 0.49996 14.7102 0.496362 14.6933 0.492257C14.6749 0.487747 14.6568 0.48278 14.6381 0.479182C14.6185 0.475432 14.5987 0.473151 14.579 0.470415C14.5627 0.468185 14.5467 0.465144 14.5302 0.463573C14.457 0.45658 14.3831 0.45658 14.3099 0.463573C14.2934 0.465144 14.2774 0.468134 14.2611 0.470415C14.2414 0.473151 14.2215 0.475381 14.202 0.479182C14.1833 0.48278 14.1652 0.487747 14.1468 0.492257C14.1298 0.496362 14.1128 0.49996 14.0961 0.504876C14.0781 0.510146 14.0607 0.516684 14.0431 0.522816C14.0264 0.528644 14.0095 0.533965 13.993 0.540553C13.9766 0.547141 13.9608 0.554945 13.9448 0.562294C13.9278 0.570047 13.9107 0.577345 13.8941 0.58596C13.8787 0.593967 13.8641 0.603039 13.8491 0.611705C13.8328 0.621131 13.8163 0.63005 13.8004 0.640338C13.7839 0.651031 13.7684 0.66294 13.7525 0.674444C13.7392 0.684072 13.7256 0.692992 13.7127 0.703279C13.6845 0.72573 13.6573 0.749396 13.6315 0.77438C13.6313 0.774583 13.6311 0.774684 13.6309 0.774887L9.16695 5.09937C8.73113 5.52157 8.73113 6.20613 9.16695 6.62832C9.60277 7.05052 10.3094 7.05052 10.7452 6.62832L13.3041 4.14942V16.6751C13.3041 17.2722 13.8037 17.7563 14.4201 17.7563C15.0364 17.7563 15.5361 17.2722 15.5361 16.6751V4.14947L18.0949 6.62837C18.5307 7.05057 19.2374 7.05057 19.6732 6.62837C20.109 6.20613 20.109 5.52162 19.6731 5.09942Z" fill="black"/>
<path d="M9.8105 20.2356L7.25163 22.7145V10.1889C7.25163 9.5918 6.75199 9.10777 6.13565 9.10777C5.5193 9.10777 5.01966 9.5918 5.01966 10.1889V22.7145L2.46079 20.2356C2.02498 19.8134 1.31834 19.8134 0.882526 20.2356C0.44671 20.6578 0.44671 21.3424 0.882526 21.7646L5.34651 26.0891C5.34672 26.0893 5.34693 26.0894 5.34714 26.0896C5.37293 26.1146 5.40008 26.1382 5.42828 26.1607C5.4412 26.171 5.45485 26.1799 5.46814 26.1896C5.48399 26.2011 5.49953 26.213 5.516 26.2237C5.53191 26.234 5.54839 26.2429 5.56471 26.2523C5.57967 26.261 5.59426 26.27 5.60964 26.278C5.62628 26.2866 5.64338 26.2939 5.66039 26.3017C5.67639 26.309 5.69219 26.3168 5.70862 26.3234C5.7251 26.3299 5.74194 26.3353 5.75868 26.3411C5.77631 26.3472 5.79368 26.3538 5.81167 26.359C5.82841 26.364 5.84542 26.3675 5.86237 26.3717C5.88073 26.3762 5.89888 26.3811 5.91761 26.3847C5.93722 26.3885 5.957 26.3907 5.97672 26.3934C5.99299 26.3957 6.00905 26.3987 6.02553 26.4003C6.09877 26.4073 6.17258 26.4073 6.24582 26.4003C6.26229 26.3987 6.2783 26.3957 6.29462 26.3934C6.31435 26.3907 6.33417 26.3885 6.35374 26.3847C6.37246 26.3811 6.39056 26.3761 6.40893 26.3716C6.42588 26.3675 6.44288 26.3639 6.45962 26.359C6.47761 26.3537 6.49503 26.3472 6.51261 26.341C6.52935 26.3352 6.54619 26.3299 6.56267 26.3233C6.5791 26.3167 6.59484 26.309 6.61085 26.3016C6.62785 26.2939 6.64501 26.2866 6.66165 26.2779C6.67698 26.2699 6.69157 26.2609 6.70648 26.2523C6.7228 26.2428 6.73933 26.2339 6.75523 26.2236C6.77171 26.2129 6.7872 26.201 6.803 26.1896C6.81634 26.1799 6.82999 26.1709 6.84296 26.1606C6.87095 26.1384 6.89789 26.1149 6.92352 26.0901C6.92394 26.0897 6.92436 26.0894 6.92473 26.089L11.3887 21.7645C11.8245 21.3423 11.8245 20.6578 11.3887 20.2356C10.9529 19.8134 10.2464 19.8134 9.8105 20.2356Z" fill="black"/>
</svg>
